<svg xmlns="http://www.w3.org/2000/svg" viewBox="0 0 1200 400" width="1200" height="400">
    <rect width="100%" height="100%" fill="#FAF6F0"/>
    
    <!-- Icon part on the left -->
    <g transform="translate(60, 40) scale(0.65)">
        <path d="M 170,110 Q 185,80 170,50 Q 155,20 170,0" fill="none" stroke="#E05A47" stroke-width="18" stroke-linecap="round"/>
        <path d="M 230,110 Q 245,85 230,60 Q 215,35 230,10" fill="none" stroke="#E05A47" stroke-width="18" stroke-linecap="round"/>
        <path d="M 320,160 L 180,160 C 120,160 100,200 100,260 L 100,320 C 100,390 140,420 200,420 L 320,420" 
              fill="none" stroke="#2E1F16" stroke-width="48" stroke-linecap="round" stroke-linejoin="round"/>
        <path d="M 315,210 C 390,210 400,260 380,290 C 360,315 330,310 315,310" 
              fill="none" stroke="#2E1F16" stroke-width="40" stroke-linecap="round"/>
        <path d="M 190,270 L 210,290 M 210,270 L 190,290" fill="none" stroke="#E05A47" stroke-width="14" stroke-linecap="round"/>
        <circle cx="260" cy="280" r="14" fill="#2E1F16"/>
    </g>
    
    <!-- Typography -->
    <g transform="translate(380, 210)">
        <text font-family="'Comfortaa', 'Fredoka One', 'Nunito', 'Segoe UI', sans-serif" font-weight="900" font-size="96" fill="#2E1F16" letter-spacing="-2">coffee snob.</text>
        <text font-family="'Nunito', 'Segoe UI', sans-serif" font-weight="600" font-size="32" fill="#E05A47" letter-spacing="4" transform="translate(5, 60)">DAILY BEANS &amp; BREWS JOURNAL</text>
    </g>
</svg>
